<svg xmlns="http://www.w3.org/2000/svg" viewBox="0 0 1216 352" width="1216" height="352" role="img" aria-label="House of Echoes secondary logo">
<defs><radialGradient id="gS" cx="50%" cy="50%" r="50%">
    <stop offset="56%" stop-color="#D4A361" stop-opacity="0"/>
    <stop offset="70%" stop-color="#D4A361" stop-opacity="1"/>
    <stop offset="76%" stop-color="#E7C48B" stop-opacity="1"/>
    <stop offset="86%" stop-color="#D4A361" stop-opacity="0.45"/>
    <stop offset="100%" stop-color="#D4A361" stop-opacity="0"/>
  </radialGradient></defs><circle cx="176" cy="176" r="120" fill="url(#gS)"/><circle cx="176" cy="176" r="79.20" fill="#0D0D0D"/><path d="M19.37 0L9.16 0L9.16-80.85L19.37-80.85L19.37-46.17L59.28-46.17L59.28-80.85L69.48-80.85L69.48 0L59.28 0L59.28-36.66L19.37-36.66L19.37 0ZM156.60 1.39L156.60 1.39Q145.46 1.39 137.05-3.83Q128.64-9.05 123.95-18.44Q119.25-27.84 119.25-40.37L119.25-40.37Q119.25-53.01 123.95-62.41Q128.64-71.80 137.05-77.02Q145.46-82.24 156.60-82.24L156.60-82.24Q167.97-82.24 176.44-77.02Q184.90-71.80 189.60-62.41Q194.30-53.01 194.30-40.37L194.30-40.37Q194.30-27.84 189.54-18.44Q184.79-9.05 176.32-3.83Q167.85 1.39 156.60 1.39ZM156.60-8.35L156.60-8.35Q165.07-8.35 171.16-12.30Q177.25-16.24 180.61-23.43Q183.98-30.62 183.98-40.37L183.98-40.37Q183.98-50.23 180.61-57.42Q177.25-64.61 171.16-68.56Q165.07-72.50 156.60-72.50L156.60-72.50Q148.36-72.50 142.22-68.61Q136.07-64.73 132.76-57.54Q129.46-50.34 129.46-40.37L129.46-40.37Q129.46-30.51 132.76-23.32Q136.07-16.12 142.22-12.24Q148.36-8.35 156.60-8.35ZM272.95 1.39L272.95 1.39Q258.56 1.39 250.97-6.38Q243.37-14.15 243.37-29.23L243.37-29.23L243.37-80.85L253.58-80.85L253.58-30.39Q253.58-23.08 255.49-18.10Q257.40-13.11 261.70-10.56Q265.99-8.00 272.95-8.00L272.95-8.00Q279.91-8.00 284.26-10.61Q288.61-13.22 290.58-18.21Q292.55-23.20 292.55-30.51L292.55-30.51L292.55-80.85L302.64-80.85L302.64-29.81Q302.64-14.50 295.05-6.55Q287.45 1.39 272.95 1.39ZM379.78 1.28L379.78 1.28Q367.60 1.28 359.83-5.10Q352.06-11.48 350.32-22.04L350.32-22.04L360.30-24.48Q361.57-16.36 366.97-12.12Q372.36-7.89 380.13-7.89L380.13-7.89Q384.66-7.89 388.25-9.63Q391.85-11.37 393.94-14.56Q396.02-17.75 396.02-21.81L396.02-21.81Q396.02-26.10 393.70-28.88Q391.38-31.67 387.27-33.76Q383.15-35.84 377.70-37.93L377.70-37.93Q370.97-40.48 365.92-43.50Q360.88-46.52 358.09-50.75Q355.31-54.98 355.31-61.13L355.31-61.13Q355.31-67.28 358.32-72.04Q361.34-76.79 366.79-79.52Q372.24-82.24 379.44-82.24L379.44-82.24Q387.09-82.24 393.01-78.76Q398.92-75.28 402.52-68.44L402.52-68.44L394.40-63.45Q391.73-68.21 387.90-70.70Q384.08-73.20 379.09-73.20L379.09-73.20Q375.14-73.20 372.07-71.69Q369.00-70.18 367.26-67.51Q365.52-64.84 365.52-61.36L365.52-61.36Q365.52-57.65 367.60-55.04Q369.69-52.43 373.64-50.46Q377.58-48.49 383.15-46.40L383.15-46.40Q390.22-43.73 395.33-40.60Q400.43-37.47 403.27-33.12Q406.12-28.77 406.12-22.39L406.12-22.39Q406.12-15.54 402.75-10.21Q399.39-4.87 393.47-1.80Q387.56 1.28 379.78 1.28ZM508.54 0L455.30 0L455.30-80.85L508.54-80.85L508.54-71.69L465.51-71.69L465.51-45.82L504.60-45.82L504.60-36.66L465.51-36.66L465.51-9.16L508.54-9.16L508.54 0ZM656.91 1.39L656.91 1.39Q645.77 1.39 637.36-3.83Q628.95-9.05 624.25-18.44Q619.56-27.84 619.56-40.37L619.56-40.37Q619.56-53.01 624.25-62.41Q628.95-71.80 637.36-77.02Q645.77-82.24 656.91-82.24L656.91-82.24Q668.28-82.24 676.74-77.02Q685.21-71.80 689.91-62.41Q694.61-53.01 694.61-40.37L694.61-40.37Q694.61-27.84 689.85-18.44Q685.10-9.05 676.63-3.83Q668.16 1.39 656.91 1.39ZM656.91-8.35L656.91-8.35Q665.38-8.35 671.47-12.30Q677.56-16.24 680.92-23.43Q684.28-30.62 684.28-40.37L684.28-40.37Q684.28-50.23 680.92-57.42Q677.56-64.61 671.47-68.56Q665.38-72.50 656.91-72.50L656.91-72.50Q648.67-72.50 642.52-68.61Q636.38-64.73 633.07-57.54Q629.76-50.34 629.76-40.37L629.76-40.37Q629.76-30.51 633.07-23.32Q636.38-16.12 642.52-12.24Q648.67-8.35 656.91-8.35ZM754.70 0L744.49 0L744.49-80.85L797.50-80.85L797.50-71.69L754.70-71.69L754.70-45.82L791.82-45.82L791.82-36.66L754.70-36.66L754.70 0Z" fill="#E6E0D5" transform="translate(362.84 162.61)"/><path d="M62.41 0L9.16 0L9.16-80.85L62.41-80.85L62.41-71.69L19.37-71.69L19.37-45.82L58.46-45.82L58.46-36.66L19.37-36.66L19.37-9.16L62.41-9.16L62.41 0ZM145.81 1.39L145.81 1.39Q134.68 1.39 126.27-3.83Q117.86-9.05 113.16-18.50Q108.46-27.96 108.46-40.48L108.46-40.48Q108.46-53.01 113.16-62.41Q117.86-71.80 126.27-77.02Q134.68-82.24 145.81-82.24L145.81-82.24Q157.99-82.24 166.92-76.21Q175.86-70.18 179.80-59.51L179.80-59.51L170.29-55.91Q167.27-63.80 161.01-68.15Q154.74-72.50 145.81-72.50L145.81-72.50Q137.58-72.50 131.43-68.56Q125.28-64.61 121.97-57.48Q118.67-50.34 118.67-40.48L118.67-40.48Q118.67-30.62 121.97-23.43Q125.28-16.24 131.43-12.30Q137.58-8.35 145.81-8.35L145.81-8.35Q154.74-8.35 161.01-12.76Q167.27-17.17 170.29-24.94L170.29-24.94L179.80-21.46Q175.86-10.90 166.92-4.76Q157.99 1.39 145.81 1.39ZM238.50 0L228.29 0L228.29-80.85L238.50-80.85L238.50-46.17L278.40-46.17L278.40-80.85L288.61-80.85L288.61 0L278.40 0L278.40-36.66L238.50-36.66L238.50 0ZM375.72 1.39L375.72 1.39Q364.59 1.39 356.18-3.83Q347.77-9.05 343.07-18.44Q338.37-27.84 338.37-40.37L338.37-40.37Q338.37-53.01 343.07-62.41Q347.77-71.80 356.18-77.02Q364.59-82.24 375.72-82.24L375.72-82.24Q387.09-82.24 395.56-77.02Q404.03-71.80 408.73-62.41Q413.42-53.01 413.42-40.37L413.42-40.37Q413.42-27.84 408.67-18.44Q403.91-9.05 395.44-3.83Q386.98 1.39 375.72 1.39ZM375.72-8.35L375.72-8.35Q384.19-8.35 390.28-12.30Q396.37-16.24 399.74-23.43Q403.10-30.62 403.10-40.37L403.10-40.37Q403.10-50.23 399.74-57.42Q396.37-64.61 390.28-68.56Q384.19-72.50 375.72-72.50L375.72-72.50Q367.49-72.50 361.34-68.61Q355.19-64.73 351.89-57.54Q348.58-50.34 348.58-40.37L348.58-40.37Q348.58-30.51 351.89-23.32Q355.19-16.12 361.34-12.24Q367.49-8.35 375.72-8.35ZM516.55 0L463.30 0L463.30-80.85L516.55-80.85L516.55-71.69L473.51-71.69L473.51-45.82L512.60-45.82L512.60-36.66L473.51-36.66L473.51-9.16L516.55-9.16L516.55 0ZM590.67 1.28L590.67 1.28Q578.49 1.28 570.72-5.10Q562.95-11.48 561.21-22.04L561.21-22.04L571.18-24.48Q572.46-16.36 577.85-12.12Q583.25-7.89 591.02-7.89L591.02-7.89Q595.54-7.89 599.14-9.63Q602.74-11.37 604.82-14.56Q606.91-17.75 606.91-21.81L606.91-21.81Q606.91-26.10 604.59-28.88Q602.27-31.67 598.15-33.76Q594.04-35.84 588.58-37.93L588.58-37.93Q581.86-40.48 576.81-43.50Q571.76-46.52 568.98-50.75Q566.20-54.98 566.20-61.13L566.20-61.13Q566.20-67.28 569.21-72.04Q572.23-76.79 577.68-79.52Q583.13-82.24 590.32-82.24L590.32-82.24Q597.98-82.24 603.90-78.76Q609.81-75.28 613.41-68.44L613.41-68.44L605.29-63.45Q602.62-68.21 598.79-70.70Q594.96-73.20 589.98-73.20L589.98-73.20Q586.03-73.20 582.96-71.69Q579.88-70.18 578.14-67.51Q576.40-64.84 576.40-61.36L576.40-61.36Q576.40-57.65 578.49-55.04Q580.58-52.43 584.52-50.46Q588.47-48.49 594.04-46.40L594.04-46.40Q601.11-43.73 606.22-40.60Q611.32-37.47 614.16-33.12Q617.00-28.77 617.00-22.39L617.00-22.39Q617.00-15.54 613.64-10.21Q610.28-4.87 604.36-1.80Q598.44 1.28 590.67 1.28Z" fill="#E6E0D5" transform="translate(362.84 270.24)"/>
</svg>
