<svg xmlns="http://www.w3.org/2000/svg" viewBox="0 0 1238 352" width="1238" height="352" role="img" aria-label="House of Echoes secondary logo">
<defs><radialGradient id="gS" cx="50%" cy="50%" r="50%">
    <stop offset="56%" stop-color="#D4A361" stop-opacity="0"/>
    <stop offset="70%" stop-color="#D4A361" stop-opacity="1"/>
    <stop offset="76%" stop-color="#E7C48B" stop-opacity="1"/>
    <stop offset="86%" stop-color="#D4A361" stop-opacity="0.45"/>
    <stop offset="100%" stop-color="#D4A361" stop-opacity="0"/>
  </radialGradient></defs><circle cx="176" cy="176" r="120" fill="url(#gS)"/><circle cx="176" cy="176" r="79.20" fill="#0D0D0D"/><path d="M67.44-65.04Q67.44-68.64 66.72-70.38Q66-72.12 63.84-72.84Q61.68-73.56 57.12-73.56L57.12-73.56Q56.76-73.56 56.76-74.28Q56.76-75 57.12-75L57.12-75L62.76-74.88Q68.28-74.64 72.24-74.64L72.24-74.64Q75.60-74.64 80.88-74.88L80.88-74.88L87-75Q87.36-75 87.36-74.28Q87.36-73.56 87-73.56L87-73.56Q82.56-73.56 80.46-72.90Q78.36-72.24 77.64-70.56Q76.92-68.88 76.92-65.28L76.92-65.28L76.92-9.72Q76.92-6.12 77.64-4.38Q78.36-2.64 80.46-2.04Q82.56-1.44 87-1.44L87-1.44Q87.36-1.44 87.36-0.72Q87.36 0 87 0L87 0Q83.16 0 80.88-0.12L80.88-0.12L72.24-0.24L62.76-0.12Q60.72 0 57.12 0L57.12 0Q56.76 0 56.76-0.72Q56.76-1.44 57.12-1.44L57.12-1.44Q61.80-1.44 63.90-2.04Q66-2.64 66.72-4.32Q67.44-6 67.44-9.72L67.44-9.72L67.44-65.04ZM18.60-37.68L18.60-40.44L71.64-40.44L71.64-37.68L18.60-37.68ZM14.16-65.28Q14.16-68.88 13.44-70.56Q12.72-72.24 10.68-72.90Q8.64-73.56 4.20-73.56L4.20-73.56Q3.84-73.56 3.84-74.28Q3.84-75 4.20-75L4.20-75L10.32-74.88Q15.36-74.64 18.72-74.64L18.72-74.64Q22.44-74.64 27.96-74.88L27.96-74.88L34.08-75Q34.32-75 34.32-74.28Q34.32-73.56 34.08-73.56L34.08-73.56Q29.52-73.56 27.36-72.84Q25.20-72.12 24.42-70.38Q23.64-68.64 23.64-65.04L23.64-65.04L23.64-9.72Q23.64-6.12 24.42-4.38Q25.20-2.64 27.30-2.04Q29.40-1.44 34.08-1.44L34.08-1.44Q34.32-1.44 34.32-0.72Q34.32 0 34.08 0L34.08 0Q30.12 0 27.96-0.12L27.96-0.12L18.72-0.24L10.20-0.12Q7.92 0 3.96 0L3.96 0Q3.72 0 3.72-0.72Q3.72-1.44 3.96-1.44L3.96-1.44Q8.40-1.44 10.50-2.04Q12.60-2.64 13.38-4.38Q14.16-6.12 14.16-9.72L14.16-9.72L14.16-65.28ZM171.24 1.44Q160.08 1.44 151.38-3.78Q142.68-9 137.94-17.94Q133.20-26.88 133.20-37.44L133.20-37.44Q133.20-49.80 139.44-58.62Q145.68-67.44 155.46-71.88Q165.24-76.32 175.44-76.32L175.44-76.32Q186.84-76.32 195.48-70.98Q204.12-65.64 208.74-56.88Q213.36-48.12 213.36-38.28L213.36-38.28Q213.36-27.36 207.60-18.24Q201.84-9.12 192.18-3.84Q182.52 1.44 171.24 1.44L171.24 1.44ZM175.44-1.20Q183.12-1.20 189.24-5.16Q195.36-9.12 198.90-16.74Q202.44-24.36 202.44-34.92L202.44-34.92Q202.44-46.08 198.54-54.84Q194.64-63.60 187.38-68.52Q180.12-73.44 170.52-73.44L170.52-73.44Q158.04-73.44 151.08-64.98Q144.12-56.52 144.12-41.64L144.12-41.64Q144.12-30.24 148.08-21Q152.04-11.76 159.18-6.48Q166.32-1.20 175.44-1.20L175.44-1.20ZM323.88-61.20Q323.88-67.20 321.12-70.38Q318.36-73.56 313.20-73.56L313.20-73.56Q312.84-73.56 312.84-74.28Q312.84-75 313.20-75L313.20-75L318.60-74.88Q322.92-74.64 325.44-74.64L325.44-74.64Q327.60-74.64 331.68-74.88L331.68-74.88L336.84-75Q337.08-75 337.08-74.28Q337.08-73.56 336.84-73.56L336.84-73.56Q332.04-73.56 329.58-70.44Q327.12-67.32 327.12-61.20L327.12-61.20L327.12-27.24Q327.12-13.80 319.26-6.12Q311.40 1.56 298.32 1.56L298.32 1.56Q289.44 1.56 282.72-1.86Q276-5.28 272.28-11.70Q268.56-18.12 268.56-26.76L268.56-26.76L268.56-65.28Q268.56-68.88 267.84-70.56Q267.12-72.24 265.14-72.90Q263.16-73.56 258.84-73.56L258.84-73.56Q258.48-73.56 258.48-74.28Q258.48-75 258.84-75L258.84-75L264.84-74.88Q270.12-74.64 273.24-74.64L273.24-74.64Q276.72-74.64 281.76-74.88L281.76-74.88L287.64-75Q288-75 288-74.28Q288-73.56 287.64-73.56L287.64-73.56Q283.44-73.56 281.46-72.84Q279.48-72.12 278.76-70.38Q278.04-68.64 278.04-65.04L278.04-65.04L278.04-30.96Q278.04-16.80 284.22-9.54Q290.40-2.28 301.56-2.28L301.56-2.28Q312-2.28 317.94-8.82Q323.88-15.36 323.88-27.12L323.88-27.12L323.88-61.20ZM393.72-61.56Q393.72-57 396-53.58Q398.28-50.16 401.52-47.70Q404.76-45.24 410.52-41.76L410.52-41.76Q416.52-38.04 420.06-35.34Q423.60-32.64 426.12-28.68Q428.64-24.72 428.64-19.32L428.64-19.32Q428.64-13.44 425.58-8.70Q422.52-3.96 416.82-1.26Q411.12 1.44 403.56 1.44L403.56 1.44Q398.76 1.44 394.08 0.30Q389.40-0.84 385.92-3L385.92-3Q385.32-3.36 385.08-3.84Q384.84-4.32 384.84-5.28L384.84-5.28L383.64-22.44Q383.52-22.92 384.18-23.04Q384.84-23.16 384.96-22.68L384.96-22.68Q387.84-13.56 393-7.20Q398.16-0.84 406.44-0.84L406.44-0.84Q412.08-0.84 415.92-3.90Q419.76-6.96 419.76-13.92L419.76-13.92Q419.76-19.20 417.36-23.16Q414.96-27.12 411.48-29.82Q408-32.52 402.24-36L402.24-36Q396.60-39.60 393.30-42.18Q390-44.76 387.72-48.54Q385.44-52.32 385.44-57.36L385.44-57.36Q385.44-63.48 388.74-67.80Q392.04-72.12 397.38-74.22Q402.72-76.32 408.60-76.32L408.60-76.32Q416.52-76.32 423.12-73.56L423.12-73.56Q424.92-72.72 424.92-71.40L424.92-71.40L425.52-56.40Q425.52-55.92 424.86-55.86Q424.20-55.80 424.08-56.28L424.08-56.28Q422.76-62.76 418.50-68.52Q414.24-74.28 406.32-74.28L406.32-74.28Q400.32-74.28 397.02-70.68Q393.72-67.08 393.72-61.56L393.72-61.56ZM476.28 0Q475.92 0 475.92-0.72Q475.92-1.44 476.28-1.44L476.28-1.44Q480.60-1.44 482.58-2.04Q484.56-2.64 485.28-4.38Q486-6.12 486-9.72L486-9.72L486-65.28Q486-68.88 485.28-70.56Q484.56-72.24 482.58-72.90Q480.60-73.56 476.28-73.56L476.28-73.56Q475.92-73.56 475.92-74.28Q475.92-75 476.28-75L476.28-75L525.24-75Q526.44-75 526.44-73.92L526.44-73.92L526.68-58.80Q526.68-58.44 526.02-58.38Q525.36-58.32 525.24-58.68L525.24-58.68Q524.40-65.28 520.56-68.76Q516.72-72.24 510.48-72.24L510.48-72.24L504.36-72.24Q499.08-72.24 497.28-70.68Q495.48-69.12 495.48-64.80L495.48-64.80L495.48-10.20Q495.48-5.88 497.10-4.32Q498.72-2.76 503.64-2.76L503.64-2.76L511.56-2.76Q518.28-2.76 522.78-6.78Q527.28-10.80 528.96-18.24L528.96-18.24Q528.96-18.48 529.44-18.48L529.44-18.48Q529.80-18.48 530.10-18.30Q530.40-18.12 530.40-18L530.40-18Q529.20-9.36 529.20-1.80L529.20-1.80Q529.20-0.84 528.84-0.42Q528.48 0 527.40 0L527.40 0L476.28 0ZM520.68-27.60Q520.68-32.76 517.74-35.22Q514.80-37.68 508.44-37.68L508.44-37.68L490.92-37.68L490.92-40.44L508.68-40.44Q514.80-40.44 517.68-42.54Q520.56-44.64 520.56-49.08L520.56-49.08Q520.56-49.32 521.22-49.32Q521.88-49.32 521.88-49.08L521.88-49.08L521.76-39L521.88-33.60Q522.12-29.76 522.12-27.60L522.12-27.60Q522.12-27.36 521.40-27.36Q520.68-27.36 520.68-27.60L520.68-27.60ZM680.16 1.44Q669 1.44 660.30-3.78Q651.60-9 646.86-17.94Q642.12-26.88 642.12-37.44L642.12-37.44Q642.12-49.80 648.36-58.62Q654.60-67.44 664.38-71.88Q674.16-76.32 684.36-76.32L684.36-76.32Q695.76-76.32 704.40-70.98Q713.04-65.64 717.66-56.88Q722.28-48.12 722.28-38.28L722.28-38.28Q722.28-27.36 716.52-18.24Q710.76-9.12 701.10-3.84Q691.44 1.44 680.16 1.44L680.16 1.44ZM684.36-1.20Q692.04-1.20 698.16-5.16Q704.28-9.12 707.82-16.74Q711.36-24.36 711.36-34.92L711.36-34.92Q711.36-46.08 707.46-54.84Q703.56-63.60 696.30-68.52Q689.04-73.44 679.44-73.44L679.44-73.44Q666.96-73.44 660-64.98Q653.04-56.52 653.04-41.64L653.04-41.64Q653.04-30.24 657-21Q660.96-11.76 668.10-6.48Q675.24-1.20 684.36-1.20L684.36-1.20ZM768.96 0Q768.60 0 768.60-0.72Q768.60-1.44 768.96-1.44L768.96-1.44Q773.40-1.44 775.44-2.04Q777.48-2.64 778.26-4.38Q779.04-6.12 779.04-9.72L779.04-9.72L779.04-65.28Q779.04-68.88 778.32-70.56Q777.60-72.24 775.62-72.90Q773.64-73.56 769.32-73.56L769.32-73.56Q768.96-73.56 768.96-74.28Q768.96-75 769.32-75L769.32-75L818.28-75Q819.48-75 819.48-73.92L819.48-73.92L819.72-58.80Q819.72-58.44 819.06-58.38Q818.40-58.32 818.28-58.68L818.28-58.68Q817.44-65.28 813.60-68.76Q809.76-72.24 803.52-72.24L803.52-72.24L797.40-72.24Q792.24-72.24 790.38-70.74Q788.52-69.24 788.52-65.16L788.52-65.16L788.52-10.20Q788.52-6.36 789.54-4.62Q790.56-2.88 793.44-2.16Q796.32-1.44 802.56-1.44L802.56-1.44Q802.80-1.44 802.80-0.72Q802.80 0 802.56 0L802.56 0Q797.64 0 794.88-0.12L794.88-0.12L783.60-0.24L775.20-0.12Q772.92 0 768.96 0L768.96 0ZM812.28-26.16Q812.28-31.32 809.16-33.78Q806.04-36.24 799.20-36.24L799.20-36.24L783.96-36.24L783.96-39L799.56-39Q806.04-39 809.10-41.16Q812.16-43.32 812.16-47.64L812.16-47.64Q812.16-47.88 812.88-47.88Q813.60-47.88 813.60-47.64L813.60-47.64L813.48-37.56Q813.48-33.96 813.60-32.16L813.60-32.16L813.72-26.16Q813.72-25.92 813-25.92Q812.28-25.92 812.28-26.16L812.28-26.16Z" fill="#E6E0D5" transform="translate(362.28 163.44)"/><path d="M5.16 0Q4.80 0 4.80-0.72Q4.80-1.44 5.16-1.44L5.16-1.44Q9.48-1.44 11.46-2.04Q13.44-2.64 14.16-4.38Q14.88-6.12 14.88-9.72L14.88-9.72L14.88-65.28Q14.88-68.88 14.16-70.56Q13.44-72.24 11.46-72.90Q9.48-73.56 5.16-73.56L5.16-73.56Q4.80-73.56 4.80-74.28Q4.80-75 5.16-75L5.16-75L54.12-75Q55.32-75 55.32-73.92L55.32-73.92L55.56-58.80Q55.56-58.44 54.90-58.38Q54.24-58.32 54.12-58.68L54.12-58.68Q53.28-65.28 49.44-68.76Q45.60-72.24 39.36-72.24L39.36-72.24L33.24-72.24Q27.96-72.24 26.16-70.68Q24.36-69.12 24.36-64.80L24.36-64.80L24.36-10.20Q24.36-5.88 25.98-4.32Q27.60-2.76 32.52-2.76L32.52-2.76L40.44-2.76Q47.16-2.76 51.66-6.78Q56.16-10.80 57.84-18.24L57.84-18.24Q57.84-18.48 58.32-18.48L58.32-18.48Q58.68-18.48 58.98-18.30Q59.28-18.12 59.28-18L59.28-18Q58.08-9.36 58.08-1.80L58.08-1.80Q58.08-0.84 57.72-0.42Q57.36 0 56.28 0L56.28 0L5.16 0ZM49.56-27.60Q49.56-32.76 46.62-35.22Q43.68-37.68 37.32-37.68L37.32-37.68L19.80-37.68L19.80-40.44L37.56-40.44Q43.68-40.44 46.56-42.54Q49.44-44.64 49.44-49.08L49.44-49.08Q49.44-49.32 50.10-49.32Q50.76-49.32 50.76-49.08L50.76-49.08L50.64-39L50.76-33.60Q51-29.76 51-27.60L51-27.60Q51-27.36 50.28-27.36Q49.56-27.36 49.56-27.60L49.56-27.60ZM150.96-76.32Q157.92-76.32 163.26-75.30Q168.60-74.28 173.28-72L173.28-72Q174.12-71.64 174.36-71.22Q174.60-70.80 174.72-69.36L174.72-69.36L176.28-54.36Q176.28-54 175.62-53.88Q174.96-53.76 174.84-54.24L174.84-54.24Q168.72-74.28 150.12-74.28L150.12-74.28Q140.64-74.28 133.32-69.84Q126-65.40 121.98-57.24Q117.96-49.08 117.96-38.16L117.96-38.16Q117.96-27.48 122.34-18.90Q126.72-10.32 134.22-5.46Q141.72-0.60 150.72-0.60L150.72-0.60Q160.08-0.60 166.08-5.34Q172.08-10.08 175.80-20.04L175.80-20.04Q175.92-20.28 176.40-20.28L176.40-20.28Q176.64-20.28 176.94-20.10Q177.24-19.92 177.24-19.80L177.24-19.80L175.92-6.12Q175.80-4.68 175.56-4.32Q175.32-3.96 174.36-3.48L174.36-3.48Q168.36-0.72 162.84 0.42Q157.32 1.56 150.72 1.56L150.72 1.56Q138 1.56 128.04-3.42Q118.08-8.40 112.50-17.28Q106.92-26.16 106.92-37.68L106.92-37.68Q106.92-48.96 112.62-57.78Q118.32-66.60 128.40-71.46Q138.48-76.32 150.96-76.32L150.96-76.32ZM286.56-65.04Q286.56-68.64 285.84-70.38Q285.12-72.12 282.96-72.84Q280.80-73.56 276.24-73.56L276.24-73.56Q275.88-73.56 275.88-74.28Q275.88-75 276.24-75L276.24-75L281.88-74.88Q287.40-74.64 291.36-74.64L291.36-74.64Q294.72-74.64 300-74.88L300-74.88L306.12-75Q306.48-75 306.48-74.28Q306.48-73.56 306.12-73.56L306.12-73.56Q301.68-73.56 299.58-72.90Q297.48-72.24 296.76-70.56Q296.04-68.88 296.04-65.28L296.04-65.28L296.04-9.72Q296.04-6.12 296.76-4.38Q297.48-2.64 299.58-2.04Q301.68-1.44 306.12-1.44L306.12-1.44Q306.48-1.44 306.48-0.72Q306.48 0 306.12 0L306.12 0Q302.28 0 300-0.12L300-0.12L291.36-0.24L281.88-0.12Q279.84 0 276.24 0L276.24 0Q275.88 0 275.88-0.72Q275.88-1.44 276.24-1.44L276.24-1.44Q280.92-1.44 283.02-2.04Q285.12-2.64 285.84-4.32Q286.56-6 286.56-9.72L286.56-9.72L286.56-65.04ZM237.72-37.68L237.72-40.44L290.76-40.44L290.76-37.68L237.72-37.68ZM233.28-65.28Q233.28-68.88 232.56-70.56Q231.84-72.24 229.80-72.90Q227.76-73.56 223.32-73.56L223.32-73.56Q222.96-73.56 222.96-74.28Q222.96-75 223.32-75L223.32-75L229.44-74.88Q234.48-74.64 237.84-74.64L237.84-74.64Q241.56-74.64 247.08-74.88L247.08-74.88L253.20-75Q253.44-75 253.44-74.28Q253.44-73.56 253.20-73.56L253.20-73.56Q248.64-73.56 246.48-72.84Q244.32-72.12 243.54-70.38Q242.76-68.64 242.76-65.04L242.76-65.04L242.76-9.72Q242.76-6.12 243.54-4.38Q244.32-2.64 246.42-2.04Q248.52-1.44 253.20-1.44L253.20-1.44Q253.44-1.44 253.44-0.72Q253.44 0 253.20 0L253.20 0Q249.24 0 247.08-0.12L247.08-0.12L237.84-0.24L229.32-0.12Q227.04 0 223.08 0L223.08 0Q222.84 0 222.84-0.72Q222.84-1.44 223.08-1.44L223.08-1.44Q227.52-1.44 229.62-2.04Q231.72-2.64 232.50-4.38Q233.28-6.12 233.28-9.72L233.28-9.72L233.28-65.28ZM390.36 1.44Q379.20 1.44 370.50-3.78Q361.80-9 357.06-17.94Q352.32-26.88 352.32-37.44L352.32-37.44Q352.32-49.80 358.56-58.62Q364.80-67.44 374.58-71.88Q384.36-76.32 394.56-76.32L394.56-76.32Q405.96-76.32 414.60-70.98Q423.24-65.64 427.86-56.88Q432.48-48.12 432.48-38.28L432.48-38.28Q432.48-27.36 426.72-18.24Q420.96-9.12 411.30-3.84Q401.64 1.44 390.36 1.44L390.36 1.44ZM394.56-1.20Q402.24-1.20 408.36-5.16Q414.48-9.12 418.02-16.74Q421.56-24.36 421.56-34.92L421.56-34.92Q421.56-46.08 417.66-54.84Q413.76-63.60 406.50-68.52Q399.24-73.44 389.64-73.44L389.64-73.44Q377.16-73.44 370.20-64.98Q363.24-56.52 363.24-41.64L363.24-41.64Q363.24-30.24 367.20-21Q371.16-11.76 378.30-6.48Q385.44-1.20 394.56-1.20L394.56-1.20ZM479.52 0Q479.16 0 479.16-0.72Q479.16-1.44 479.52-1.44L479.52-1.44Q483.84-1.44 485.82-2.04Q487.80-2.64 488.52-4.38Q489.24-6.12 489.24-9.72L489.24-9.72L489.24-65.28Q489.24-68.88 488.52-70.56Q487.80-72.24 485.82-72.90Q483.84-73.56 479.52-73.56L479.52-73.56Q479.16-73.56 479.16-74.28Q479.16-75 479.52-75L479.52-75L528.48-75Q529.68-75 529.68-73.92L529.68-73.92L529.92-58.80Q529.92-58.44 529.26-58.38Q528.60-58.32 528.48-58.68L528.48-58.68Q527.64-65.28 523.80-68.76Q519.96-72.24 513.72-72.24L513.72-72.24L507.60-72.24Q502.32-72.24 500.52-70.68Q498.72-69.12 498.72-64.80L498.72-64.80L498.72-10.20Q498.72-5.88 500.34-4.32Q501.96-2.76 506.88-2.76L506.88-2.76L514.80-2.76Q521.52-2.76 526.02-6.78Q530.52-10.80 532.20-18.24L532.20-18.24Q532.20-18.48 532.68-18.48L532.68-18.48Q533.04-18.48 533.34-18.30Q533.64-18.12 533.64-18L533.64-18Q532.44-9.36 532.44-1.80L532.44-1.80Q532.44-0.84 532.08-0.42Q531.72 0 530.64 0L530.64 0L479.52 0ZM523.92-27.60Q523.92-32.76 520.98-35.22Q518.04-37.68 511.68-37.68L511.68-37.68L494.16-37.68L494.16-40.44L511.92-40.44Q518.04-40.44 520.92-42.54Q523.80-44.64 523.80-49.08L523.80-49.08Q523.80-49.32 524.46-49.32Q525.12-49.32 525.12-49.08L525.12-49.08L525-39L525.12-33.60Q525.36-29.76 525.36-27.60L525.36-27.60Q525.36-27.36 524.64-27.36Q523.92-27.36 523.92-27.60L523.92-27.60ZM593.88-61.56Q593.88-57 596.16-53.58Q598.44-50.16 601.68-47.70Q604.92-45.24 610.68-41.76L610.68-41.76Q616.68-38.04 620.22-35.34Q623.76-32.64 626.28-28.68Q628.80-24.72 628.80-19.32L628.80-19.32Q628.80-13.44 625.74-8.70Q622.68-3.96 616.98-1.26Q611.28 1.44 603.72 1.44L603.72 1.44Q598.92 1.44 594.24 0.30Q589.56-0.84 586.08-3L586.08-3Q585.48-3.36 585.24-3.84Q585-4.32 585-5.28L585-5.28L583.80-22.44Q583.68-22.92 584.34-23.04Q585-23.16 585.12-22.68L585.12-22.68Q588-13.56 593.16-7.20Q598.32-0.84 606.60-0.84L606.60-0.84Q612.24-0.84 616.08-3.90Q619.92-6.96 619.92-13.92L619.92-13.92Q619.92-19.20 617.52-23.16Q615.12-27.12 611.64-29.82Q608.16-32.52 602.40-36L602.40-36Q596.76-39.60 593.46-42.18Q590.16-44.76 587.88-48.54Q585.60-52.32 585.60-57.36L585.60-57.36Q585.60-63.48 588.90-67.80Q592.20-72.12 597.54-74.22Q602.88-76.32 608.76-76.32L608.76-76.32Q616.68-76.32 623.28-73.56L623.28-73.56Q625.08-72.72 625.08-71.40L625.08-71.40L625.68-56.40Q625.68-55.92 625.02-55.86Q624.36-55.80 624.24-56.28L624.24-56.28Q622.92-62.76 618.66-68.52Q614.40-74.28 606.48-74.28L606.48-74.28Q600.48-74.28 597.18-70.68Q593.88-67.08 593.88-61.56L593.88-61.56Z" fill="#E6E0D5" transform="translate(361.20 263.32)"/>
</svg>
