<svg xmlns="http://www.w3.org/2000/svg" viewBox="0 0 475 529" width="475" height="529" role="img" aria-label="House of Echoes submark">
<defs><radialGradient id="gSub" cx="50%" cy="50%" r="50%">
    <stop offset="56%" stop-color="#D4A361" stop-opacity="0"/>
    <stop offset="70%" stop-color="#D4A361" stop-opacity="1"/>
    <stop offset="76%" stop-color="#E7C48B" stop-opacity="1"/>
    <stop offset="86%" stop-color="#D4A361" stop-opacity="0.45"/>
    <stop offset="100%" stop-color="#D4A361" stop-opacity="0"/>
  </radialGradient></defs><circle cx="237.47000000000003" cy="196" r="140" fill="url(#gSub)"/><circle cx="237.47000000000003" cy="196" r="92.40" fill="#0D0D0D"/><path d="M77.56-74.80Q77.56-78.94 76.73-80.94Q75.90-82.94 73.42-83.77Q70.93-84.59 65.69-84.59L65.69-84.59Q65.27-84.59 65.27-85.42Q65.27-86.25 65.69-86.25L65.69-86.25L72.17-86.11Q78.52-85.84 83.08-85.84L83.08-85.84Q86.94-85.84 93.01-86.11L93.01-86.11L100.05-86.25Q100.46-86.25 100.46-85.42Q100.46-84.59 100.05-84.59L100.05-84.59Q94.94-84.59 92.53-83.84Q90.11-83.08 89.29-81.14Q88.46-79.21 88.46-75.07L88.46-75.07L88.46-11.18Q88.46-7.04 89.29-5.04Q90.11-3.04 92.53-2.35Q94.94-1.66 100.05-1.66L100.05-1.66Q100.46-1.66 100.46-0.83Q100.46 0 100.05 0L100.05 0Q95.63 0 93.01-0.14L93.01-0.14L83.08-0.28L72.17-0.14Q69.83 0 65.69 0L65.69 0Q65.27 0 65.27-0.83Q65.27-1.66 65.69-1.66L65.69-1.66Q71.07-1.66 73.48-2.35Q75.90-3.04 76.73-4.97Q77.56-6.90 77.56-11.18L77.56-11.18L77.56-74.80ZM21.39-43.33L21.39-46.51L82.39-46.51L82.39-43.33L21.39-43.33ZM16.28-75.07Q16.28-79.21 15.46-81.14Q14.63-83.08 12.28-83.84Q9.94-84.59 4.83-84.59L4.83-84.59Q4.42-84.59 4.42-85.42Q4.42-86.25 4.83-86.25L4.83-86.25L11.87-86.11Q17.66-85.84 21.53-85.84L21.53-85.84Q25.81-85.84 32.15-86.11L32.15-86.11L39.19-86.25Q39.47-86.25 39.47-85.42Q39.47-84.59 39.19-84.59L39.19-84.59Q33.95-84.59 31.46-83.77Q28.98-82.94 28.08-80.94Q27.19-78.94 27.19-74.80L27.19-74.80L27.19-11.18Q27.19-7.04 28.08-5.04Q28.98-3.04 31.40-2.35Q33.81-1.66 39.19-1.66L39.19-1.66Q39.47-1.66 39.47-0.83Q39.47 0 39.19 0L39.19 0Q34.64 0 32.15-0.14L32.15-0.14L21.53-0.28L11.73-0.14Q9.11 0 4.55 0L4.55 0Q4.28 0 4.28-0.83Q4.28-1.66 4.55-1.66L4.55-1.66Q9.66-1.66 12.08-2.35Q14.49-3.04 15.39-5.04Q16.28-7.04 16.28-11.18L16.28-11.18L16.28-75.07ZM199.69 1.66Q186.85 1.66 176.85-4.35Q166.84-10.35 161.39-20.63Q155.94-30.91 155.94-43.06L155.94-43.06Q155.94-57.27 163.12-67.41Q170.29-77.56 181.54-82.66Q192.79-87.77 204.52-87.77L204.52-87.77Q217.63-87.77 227.56-81.63Q237.50-75.49 242.81-65.41Q248.12-55.34 248.12-44.02L248.12-44.02Q248.12-31.46 241.50-20.98Q234.88-10.49 223.77-4.42Q212.66 1.66 199.69 1.66L199.69 1.66ZM204.52-1.38Q213.35-1.38 220.39-5.93Q227.42-10.49 231.50-19.25Q235.57-28.01 235.57-40.16L235.57-40.16Q235.57-52.99 231.08-63.07Q226.60-73.14 218.25-78.80Q209.90-84.46 198.86-84.46L198.86-84.46Q184.51-84.46 176.50-74.73Q168.50-65.00 168.50-47.89L168.50-47.89Q168.50-34.78 173.05-24.15Q177.61-13.52 185.82-7.45Q194.03-1.38 204.52-1.38L204.52-1.38ZM304.98 0Q304.57 0 304.57-0.83Q304.57-1.66 304.98-1.66L304.98-1.66Q309.95-1.66 312.23-2.35Q314.50-3.04 315.33-5.04Q316.16-7.04 316.16-11.18L316.16-11.18L316.16-75.07Q316.16-79.21 315.33-81.14Q314.50-83.08 312.23-83.84Q309.95-84.59 304.98-84.59L304.98-84.59Q304.57-84.59 304.57-85.42Q304.57-86.25 304.98-86.25L304.98-86.25L361.28-86.25Q362.66-86.25 362.66-85.01L362.66-85.01L362.94-67.62Q362.94-67.21 362.18-67.14Q361.42-67.07 361.28-67.48L361.28-67.48Q360.32-75.07 355.90-79.07Q351.49-83.08 344.31-83.08L344.31-83.08L337.27-83.08Q331.20-83.08 329.13-81.28Q327.06-79.49 327.06-74.52L327.06-74.52L327.06-11.73Q327.06-6.76 328.92-4.97Q330.79-3.17 336.44-3.17L336.44-3.17L345.55-3.17Q353.28-3.17 358.46-7.80Q363.63-12.42 365.56-20.98L365.56-20.98Q365.56-21.25 366.11-21.25L366.11-21.25Q366.53-21.25 366.87-21.05Q367.22-20.84 367.22-20.70L367.22-20.70Q365.84-10.76 365.84-2.07L365.84-2.07Q365.84-0.97 365.42-0.48Q365.01 0 363.77 0L363.77 0L304.98 0ZM356.04-31.74Q356.04-37.67 352.66-40.50Q349.28-43.33 341.96-43.33L341.96-43.33L321.82-43.33L321.82-46.51L342.24-46.51Q349.28-46.51 352.59-48.92Q355.90-51.34 355.90-56.44L355.90-56.44Q355.90-56.72 356.66-56.72Q357.42-56.72 357.42-56.44L357.42-56.44L357.28-44.85L357.42-38.64Q357.70-34.22 357.70-31.74L357.70-31.74Q357.70-31.46 356.87-31.46Q356.04-31.46 356.04-31.74L356.04-31.74Z" fill="#E6E0D5" transform="translate(51.72 471.77)"/>
</svg>
