<svg xmlns="http://www.w3.org/2000/svg" viewBox="0 0 439 536" width="439" height="536" role="img" aria-label="House of Echoes submark">
<defs><radialGradient id="gSub" cx="50%" cy="50%" r="50%">
    <stop offset="56%" stop-color="#D4A361" stop-opacity="0"/>
    <stop offset="70%" stop-color="#D4A361" stop-opacity="1"/>
    <stop offset="76%" stop-color="#E7C48B" stop-opacity="1"/>
    <stop offset="86%" stop-color="#D4A361" stop-opacity="0.45"/>
    <stop offset="100%" stop-color="#D4A361" stop-opacity="0"/>
  </radialGradient></defs><circle cx="219.647" cy="196" r="140" fill="url(#gSub)"/><circle cx="219.647" cy="196" r="92.40" fill="#0D0D0D"/><path d="M21.31 0L10.08 0L10.08-88.94L21.31-88.94L21.31-50.78L65.20-50.78L65.20-88.94L76.43-88.94L76.43 0L65.20 0L65.20-40.32L21.31-40.32L21.31 0ZM177.36 1.53L177.36 1.53Q165.11 1.53 155.86-4.21Q146.61-9.95 141.44-20.29Q136.28-30.62 136.28-44.40L136.28-44.40Q136.28-58.31 141.44-68.65Q146.61-78.98 155.86-84.73Q165.11-90.47 177.36-90.47L177.36-90.47Q189.87-90.47 199.18-84.73Q208.50-78.98 213.67-68.65Q218.83-58.31 218.83-44.40L218.83-44.40Q218.83-30.62 213.60-20.29Q208.37-9.95 199.06-4.21Q189.74 1.53 177.36 1.53ZM177.36-9.19L177.36-9.19Q186.68-9.19 193.38-13.53Q200.08-17.86 203.78-25.78Q207.48-33.69 207.48-44.40L207.48-44.40Q207.48-55.25 203.78-63.16Q200.08-71.07 193.38-75.41Q186.68-79.75 177.36-79.75L177.36-79.75Q168.30-79.75 161.54-75.48Q154.78-71.20 151.14-63.29Q147.51-55.38 147.51-44.40L147.51-44.40Q147.51-33.56 151.14-25.65Q154.78-17.74 161.54-13.46Q168.30-9.19 177.36-9.19ZM337.37 0L278.81 0L278.81-88.94L337.37-88.94L337.37-78.86L290.03-78.86L290.03-50.40L333.04-50.40L333.04-40.32L290.03-40.32L290.03-10.08L337.37-10.08L337.37 0Z" fill="#E6E0D5" transform="translate(45.92 478.47)"/>
</svg>
