<svg xmlns="http://www.w3.org/2000/svg" viewBox="0 0 1620 228" width="1620" height="228" role="img" aria-label="House of Echoes wordmark">
<path d="M19.37 0L9.16 0L9.16-80.85L19.37-80.85L19.37-46.17L59.28-46.17L59.28-80.85L69.48-80.85L69.48 0L59.28 0L59.28-36.66L19.37-36.66L19.37 0ZM156.60 1.39L156.60 1.39Q145.46 1.39 137.05-3.83Q128.64-9.05 123.95-18.44Q119.25-27.84 119.25-40.37L119.25-40.37Q119.25-53.01 123.95-62.41Q128.64-71.80 137.05-77.02Q145.46-82.24 156.60-82.24L156.60-82.24Q167.97-82.24 176.44-77.02Q184.90-71.80 189.60-62.41Q194.30-53.01 194.30-40.37L194.30-40.37Q194.30-27.84 189.54-18.44Q184.79-9.05 176.32-3.83Q167.85 1.39 156.60 1.39ZM156.60-8.35L156.60-8.35Q165.07-8.35 171.16-12.30Q177.25-16.24 180.61-23.43Q183.98-30.62 183.98-40.37L183.98-40.37Q183.98-50.23 180.61-57.42Q177.25-64.61 171.16-68.56Q165.07-72.50 156.60-72.50L156.60-72.50Q148.36-72.50 142.22-68.61Q136.07-64.73 132.76-57.54Q129.46-50.34 129.46-40.37L129.46-40.37Q129.46-30.51 132.76-23.32Q136.07-16.12 142.22-12.24Q148.36-8.35 156.60-8.35ZM272.95 1.39L272.95 1.39Q258.56 1.39 250.97-6.38Q243.37-14.15 243.37-29.23L243.37-29.23L243.37-80.85L253.58-80.85L253.58-30.39Q253.58-23.08 255.49-18.10Q257.40-13.11 261.70-10.56Q265.99-8.00 272.95-8.00L272.95-8.00Q279.91-8.00 284.26-10.61Q288.61-13.22 290.58-18.21Q292.55-23.20 292.55-30.51L292.55-30.51L292.55-80.85L302.64-80.85L302.64-29.81Q302.64-14.50 295.05-6.55Q287.45 1.39 272.95 1.39ZM379.78 1.28L379.78 1.28Q367.60 1.28 359.83-5.10Q352.06-11.48 350.32-22.04L350.32-22.04L360.30-24.48Q361.57-16.36 366.97-12.12Q372.36-7.89 380.13-7.89L380.13-7.89Q384.66-7.89 388.25-9.63Q391.85-11.37 393.94-14.56Q396.02-17.75 396.02-21.81L396.02-21.81Q396.02-26.10 393.70-28.88Q391.38-31.67 387.27-33.76Q383.15-35.84 377.70-37.93L377.70-37.93Q370.97-40.48 365.92-43.50Q360.88-46.52 358.09-50.75Q355.31-54.98 355.31-61.13L355.31-61.13Q355.31-67.28 358.32-72.04Q361.34-76.79 366.79-79.52Q372.24-82.24 379.44-82.24L379.44-82.24Q387.09-82.24 393.01-78.76Q398.92-75.28 402.52-68.44L402.52-68.44L394.40-63.45Q391.73-68.21 387.90-70.70Q384.08-73.20 379.09-73.20L379.09-73.20Q375.14-73.20 372.07-71.69Q369.00-70.18 367.26-67.51Q365.52-64.84 365.52-61.36L365.52-61.36Q365.52-57.65 367.60-55.04Q369.69-52.43 373.64-50.46Q377.58-48.49 383.15-46.40L383.15-46.40Q390.22-43.73 395.33-40.60Q400.43-37.47 403.27-33.12Q406.12-28.77 406.12-22.39L406.12-22.39Q406.12-15.54 402.75-10.21Q399.39-4.87 393.47-1.80Q387.56 1.28 379.78 1.28ZM508.54 0L455.30 0L455.30-80.85L508.54-80.85L508.54-71.69L465.51-71.69L465.51-45.82L504.60-45.82L504.60-36.66L465.51-36.66L465.51-9.16L508.54-9.16L508.54 0ZM656.91 1.39L656.91 1.39Q645.77 1.39 637.36-3.83Q628.95-9.05 624.25-18.44Q619.56-27.84 619.56-40.37L619.56-40.37Q619.56-53.01 624.25-62.41Q628.95-71.80 637.36-77.02Q645.77-82.24 656.91-82.24L656.91-82.24Q668.28-82.24 676.74-77.02Q685.21-71.80 689.91-62.41Q694.61-53.01 694.61-40.37L694.61-40.37Q694.61-27.84 689.85-18.44Q685.10-9.05 676.63-3.83Q668.16 1.39 656.91 1.39ZM656.91-8.35L656.91-8.35Q665.38-8.35 671.47-12.30Q677.56-16.24 680.92-23.43Q684.28-30.62 684.28-40.37L684.28-40.37Q684.28-50.23 680.92-57.42Q677.56-64.61 671.47-68.56Q665.38-72.50 656.91-72.50L656.91-72.50Q648.67-72.50 642.52-68.61Q636.38-64.73 633.07-57.54Q629.76-50.34 629.76-40.37L629.76-40.37Q629.76-30.51 633.07-23.32Q636.38-16.12 642.52-12.24Q648.67-8.35 656.91-8.35ZM754.70 0L744.49 0L744.49-80.85L797.50-80.85L797.50-71.69L754.70-71.69L754.70-45.82L791.82-45.82L791.82-36.66L754.70-36.66L754.70 0ZM963.03 0L909.79 0L909.79-80.85L963.03-80.85L963.03-71.69L920.00-71.69L920.00-45.82L959.09-45.82L959.09-36.66L920.00-36.66L920.00-9.16L963.03-9.16L963.03 0ZM1046.44 1.39L1046.44 1.39Q1035.30 1.39 1026.89-3.83Q1018.48-9.05 1013.78-18.50Q1009.08-27.96 1009.08-40.48L1009.08-40.48Q1009.08-53.01 1013.78-62.41Q1018.48-71.80 1026.89-77.02Q1035.30-82.24 1046.44-82.24L1046.44-82.24Q1058.62-82.24 1067.55-76.21Q1076.48-70.18 1080.42-59.51L1080.42-59.51L1070.91-55.91Q1067.90-63.80 1061.63-68.15Q1055.37-72.50 1046.44-72.50L1046.44-72.50Q1038.20-72.50 1032.05-68.56Q1025.90-64.61 1022.60-57.48Q1019.29-50.34 1019.29-40.48L1019.29-40.48Q1019.29-30.62 1022.60-23.43Q1025.90-16.24 1032.05-12.30Q1038.20-8.35 1046.44-8.35L1046.44-8.35Q1055.37-8.35 1061.63-12.76Q1067.90-17.17 1070.91-24.94L1070.91-24.94L1080.42-21.46Q1076.48-10.90 1067.55-4.76Q1058.62 1.39 1046.44 1.39ZM1139.12 0L1128.91 0L1128.91-80.85L1139.12-80.85L1139.12-46.17L1179.02-46.17L1179.02-80.85L1189.23-80.85L1189.23 0L1179.02 0L1179.02-36.66L1139.12-36.66L1139.12 0ZM1276.35 1.39L1276.35 1.39Q1265.21 1.39 1256.80-3.83Q1248.39-9.05 1243.69-18.44Q1239.00-27.84 1239.00-40.37L1239.00-40.37Q1239.00-53.01 1243.69-62.41Q1248.39-71.80 1256.80-77.02Q1265.21-82.24 1276.35-82.24L1276.35-82.24Q1287.72-82.24 1296.18-77.02Q1304.65-71.80 1309.35-62.41Q1314.05-53.01 1314.05-40.37L1314.05-40.37Q1314.05-27.84 1309.29-18.44Q1304.54-9.05 1296.07-3.83Q1287.60 1.39 1276.35 1.39ZM1276.35-8.35L1276.35-8.35Q1284.82-8.35 1290.91-12.30Q1297.00-16.24 1300.36-23.43Q1303.72-30.62 1303.72-40.37L1303.72-40.37Q1303.72-50.23 1300.36-57.42Q1297.00-64.61 1290.91-68.56Q1284.82-72.50 1276.35-72.50L1276.35-72.50Q1268.11-72.50 1261.96-68.61Q1255.82-64.73 1252.51-57.54Q1249.20-50.34 1249.20-40.37L1249.20-40.37Q1249.20-30.51 1252.51-23.32Q1255.82-16.12 1261.96-12.24Q1268.11-8.35 1276.35-8.35ZM1417.17 0L1363.93 0L1363.93-80.85L1417.17-80.85L1417.17-71.69L1374.14-71.69L1374.14-45.82L1413.23-45.82L1413.23-36.66L1374.14-36.66L1374.14-9.16L1417.17-9.16L1417.17 0ZM1491.30 1.28L1491.30 1.28Q1479.12 1.28 1471.34-5.10Q1463.57-11.48 1461.83-22.04L1461.83-22.04L1471.81-24.48Q1473.08-16.36 1478.48-12.12Q1483.87-7.89 1491.64-7.89L1491.64-7.89Q1496.17-7.89 1499.76-9.63Q1503.36-11.37 1505.45-14.56Q1507.54-17.75 1507.54-21.81L1507.54-21.81Q1507.54-26.10 1505.22-28.88Q1502.90-31.67 1498.78-33.76Q1494.66-35.84 1489.21-37.93L1489.21-37.93Q1482.48-40.48 1477.43-43.50Q1472.39-46.52 1469.60-50.75Q1466.82-54.98 1466.82-61.13L1466.82-61.13Q1466.82-67.28 1469.84-72.04Q1472.85-76.79 1478.30-79.52Q1483.76-82.24 1490.95-82.24L1490.95-82.24Q1498.60-82.24 1504.52-78.76Q1510.44-75.28 1514.03-68.44L1514.03-68.44L1505.91-63.45Q1503.24-68.21 1499.42-70.70Q1495.59-73.20 1490.60-73.20L1490.60-73.20Q1486.66-73.20 1483.58-71.69Q1480.51-70.18 1478.77-67.51Q1477.03-64.84 1477.03-61.36L1477.03-61.36Q1477.03-57.65 1479.12-55.04Q1481.20-52.43 1485.15-50.46Q1489.09-48.49 1494.66-46.40L1494.66-46.40Q1501.74-43.73 1506.84-40.60Q1511.94-37.47 1514.79-33.12Q1517.63-28.77 1517.63-22.39L1517.63-22.39Q1517.63-15.54 1514.26-10.21Q1510.90-4.87 1504.98-1.80Q1499.07 1.28 1491.30 1.28Z" fill="#E6E0D5" transform="translate(46.84 138.24)"/><rect x="719.72" y="169.64" width="181.02" height="2" fill="#D4A361"/>
</svg>
