<svg xmlns="http://www.w3.org/2000/svg" viewBox="0 0 1663 218" width="1663" height="218" role="img" aria-label="House of Echoes wordmark">
<path d="M67.44-65.04Q67.44-68.64 66.72-70.38Q66-72.12 63.84-72.84Q61.68-73.56 57.12-73.56L57.12-73.56Q56.76-73.56 56.76-74.28Q56.76-75 57.12-75L57.12-75L62.76-74.88Q68.28-74.64 72.24-74.64L72.24-74.64Q75.60-74.64 80.88-74.88L80.88-74.88L87-75Q87.36-75 87.36-74.28Q87.36-73.56 87-73.56L87-73.56Q82.56-73.56 80.46-72.90Q78.36-72.24 77.64-70.56Q76.92-68.88 76.92-65.28L76.92-65.28L76.92-9.72Q76.92-6.12 77.64-4.38Q78.36-2.64 80.46-2.04Q82.56-1.44 87-1.44L87-1.44Q87.36-1.44 87.36-0.72Q87.36 0 87 0L87 0Q83.16 0 80.88-0.12L80.88-0.12L72.24-0.24L62.76-0.12Q60.72 0 57.12 0L57.12 0Q56.76 0 56.76-0.72Q56.76-1.44 57.12-1.44L57.12-1.44Q61.80-1.44 63.90-2.04Q66-2.64 66.72-4.32Q67.44-6 67.44-9.72L67.44-9.72L67.44-65.04ZM18.60-37.68L18.60-40.44L71.64-40.44L71.64-37.68L18.60-37.68ZM14.16-65.28Q14.16-68.88 13.44-70.56Q12.72-72.24 10.68-72.90Q8.64-73.56 4.20-73.56L4.20-73.56Q3.84-73.56 3.84-74.28Q3.84-75 4.20-75L4.20-75L10.32-74.88Q15.36-74.64 18.72-74.64L18.72-74.64Q22.44-74.64 27.96-74.88L27.96-74.88L34.08-75Q34.32-75 34.32-74.28Q34.32-73.56 34.08-73.56L34.08-73.56Q29.52-73.56 27.36-72.84Q25.20-72.12 24.42-70.38Q23.64-68.64 23.64-65.04L23.64-65.04L23.64-9.72Q23.64-6.12 24.42-4.38Q25.20-2.64 27.30-2.04Q29.40-1.44 34.08-1.44L34.08-1.44Q34.32-1.44 34.32-0.72Q34.32 0 34.08 0L34.08 0Q30.12 0 27.96-0.12L27.96-0.12L18.72-0.24L10.20-0.12Q7.92 0 3.96 0L3.96 0Q3.72 0 3.72-0.72Q3.72-1.44 3.96-1.44L3.96-1.44Q8.40-1.44 10.50-2.04Q12.60-2.64 13.38-4.38Q14.16-6.12 14.16-9.72L14.16-9.72L14.16-65.28ZM171.24 1.44Q160.08 1.44 151.38-3.78Q142.68-9 137.94-17.94Q133.20-26.88 133.20-37.44L133.20-37.44Q133.20-49.80 139.44-58.62Q145.68-67.44 155.46-71.88Q165.24-76.32 175.44-76.32L175.44-76.32Q186.84-76.32 195.48-70.98Q204.12-65.64 208.74-56.88Q213.36-48.12 213.36-38.28L213.36-38.28Q213.36-27.36 207.60-18.24Q201.84-9.12 192.18-3.84Q182.52 1.44 171.24 1.44L171.24 1.44ZM175.44-1.20Q183.12-1.20 189.24-5.16Q195.36-9.12 198.90-16.74Q202.44-24.36 202.44-34.92L202.44-34.92Q202.44-46.08 198.54-54.84Q194.64-63.60 187.38-68.52Q180.12-73.44 170.52-73.44L170.52-73.44Q158.04-73.44 151.08-64.98Q144.12-56.52 144.12-41.64L144.12-41.64Q144.12-30.24 148.08-21Q152.04-11.76 159.18-6.48Q166.32-1.20 175.44-1.20L175.44-1.20ZM323.88-61.20Q323.88-67.20 321.12-70.38Q318.36-73.56 313.20-73.56L313.20-73.56Q312.84-73.56 312.84-74.28Q312.84-75 313.20-75L313.20-75L318.60-74.88Q322.92-74.64 325.44-74.64L325.44-74.64Q327.60-74.64 331.68-74.88L331.68-74.88L336.84-75Q337.08-75 337.08-74.28Q337.08-73.56 336.84-73.56L336.84-73.56Q332.04-73.56 329.58-70.44Q327.12-67.32 327.12-61.20L327.12-61.20L327.12-27.24Q327.12-13.80 319.26-6.12Q311.40 1.56 298.32 1.56L298.32 1.56Q289.44 1.56 282.72-1.86Q276-5.28 272.28-11.70Q268.56-18.12 268.56-26.76L268.56-26.76L268.56-65.28Q268.56-68.88 267.84-70.56Q267.12-72.24 265.14-72.90Q263.16-73.56 258.84-73.56L258.84-73.56Q258.48-73.56 258.48-74.28Q258.48-75 258.84-75L258.84-75L264.84-74.88Q270.12-74.64 273.24-74.64L273.24-74.64Q276.72-74.64 281.76-74.88L281.76-74.88L287.64-75Q288-75 288-74.28Q288-73.56 287.64-73.56L287.64-73.56Q283.44-73.56 281.46-72.84Q279.48-72.12 278.76-70.38Q278.04-68.64 278.04-65.04L278.04-65.04L278.04-30.96Q278.04-16.80 284.22-9.54Q290.40-2.28 301.56-2.28L301.56-2.28Q312-2.28 317.94-8.82Q323.88-15.36 323.88-27.12L323.88-27.12L323.88-61.20ZM393.72-61.56Q393.72-57 396-53.58Q398.28-50.16 401.52-47.70Q404.76-45.24 410.52-41.76L410.52-41.76Q416.52-38.04 420.06-35.34Q423.60-32.64 426.12-28.68Q428.64-24.72 428.64-19.32L428.64-19.32Q428.64-13.44 425.58-8.70Q422.52-3.96 416.82-1.26Q411.12 1.44 403.56 1.44L403.56 1.44Q398.76 1.44 394.08 0.30Q389.40-0.84 385.92-3L385.92-3Q385.32-3.36 385.08-3.84Q384.84-4.32 384.84-5.28L384.84-5.28L383.64-22.44Q383.52-22.92 384.18-23.04Q384.84-23.16 384.96-22.68L384.96-22.68Q387.84-13.56 393-7.20Q398.16-0.84 406.44-0.84L406.44-0.84Q412.08-0.84 415.92-3.90Q419.76-6.96 419.76-13.92L419.76-13.92Q419.76-19.20 417.36-23.16Q414.96-27.12 411.48-29.82Q408-32.52 402.24-36L402.24-36Q396.60-39.60 393.30-42.18Q390-44.76 387.72-48.54Q385.44-52.32 385.44-57.36L385.44-57.36Q385.44-63.48 388.74-67.80Q392.04-72.12 397.38-74.22Q402.72-76.32 408.60-76.32L408.60-76.32Q416.52-76.32 423.12-73.56L423.12-73.56Q424.92-72.72 424.92-71.40L424.92-71.40L425.52-56.40Q425.52-55.92 424.86-55.86Q424.20-55.80 424.08-56.28L424.08-56.28Q422.76-62.76 418.50-68.52Q414.24-74.28 406.32-74.28L406.32-74.28Q400.32-74.28 397.02-70.68Q393.72-67.08 393.72-61.56L393.72-61.56ZM476.28 0Q475.92 0 475.92-0.72Q475.92-1.44 476.28-1.44L476.28-1.44Q480.60-1.44 482.58-2.04Q484.56-2.64 485.28-4.38Q486-6.12 486-9.72L486-9.72L486-65.28Q486-68.88 485.28-70.56Q484.56-72.24 482.58-72.90Q480.60-73.56 476.28-73.56L476.28-73.56Q475.92-73.56 475.92-74.28Q475.92-75 476.28-75L476.28-75L525.24-75Q526.44-75 526.44-73.92L526.44-73.92L526.68-58.80Q526.68-58.44 526.02-58.38Q525.36-58.32 525.24-58.68L525.24-58.68Q524.40-65.28 520.56-68.76Q516.72-72.24 510.48-72.24L510.48-72.24L504.36-72.24Q499.08-72.24 497.28-70.68Q495.48-69.12 495.48-64.80L495.48-64.80L495.48-10.20Q495.48-5.88 497.10-4.32Q498.72-2.76 503.64-2.76L503.64-2.76L511.56-2.76Q518.28-2.76 522.78-6.78Q527.28-10.80 528.96-18.24L528.96-18.24Q528.96-18.48 529.44-18.48L529.44-18.48Q529.80-18.48 530.10-18.30Q530.40-18.12 530.40-18L530.40-18Q529.20-9.36 529.20-1.80L529.20-1.80Q529.20-0.84 528.84-0.42Q528.48 0 527.40 0L527.40 0L476.28 0ZM520.68-27.60Q520.68-32.76 517.74-35.22Q514.80-37.68 508.44-37.68L508.44-37.68L490.92-37.68L490.92-40.44L508.68-40.44Q514.80-40.44 517.68-42.54Q520.56-44.64 520.56-49.08L520.56-49.08Q520.56-49.32 521.22-49.32Q521.88-49.32 521.88-49.08L521.88-49.08L521.76-39L521.88-33.60Q522.12-29.76 522.12-27.60L522.12-27.60Q522.12-27.36 521.40-27.36Q520.68-27.36 520.68-27.60L520.68-27.60ZM680.16 1.44Q669 1.44 660.30-3.78Q651.60-9 646.86-17.94Q642.12-26.88 642.12-37.44L642.12-37.44Q642.12-49.80 648.36-58.62Q654.60-67.44 664.38-71.88Q674.16-76.32 684.36-76.32L684.36-76.32Q695.76-76.32 704.40-70.98Q713.04-65.64 717.66-56.88Q722.28-48.12 722.28-38.28L722.28-38.28Q722.28-27.36 716.52-18.24Q710.76-9.12 701.10-3.84Q691.44 1.44 680.16 1.44L680.16 1.44ZM684.36-1.20Q692.04-1.20 698.16-5.16Q704.28-9.12 707.82-16.74Q711.36-24.36 711.36-34.92L711.36-34.92Q711.36-46.08 707.46-54.84Q703.56-63.60 696.30-68.52Q689.04-73.44 679.44-73.44L679.44-73.44Q666.96-73.44 660-64.98Q653.04-56.52 653.04-41.64L653.04-41.64Q653.04-30.24 657-21Q660.96-11.76 668.10-6.48Q675.24-1.20 684.36-1.20L684.36-1.20ZM768.96 0Q768.60 0 768.60-0.72Q768.60-1.44 768.96-1.44L768.96-1.44Q773.40-1.44 775.44-2.04Q777.48-2.64 778.26-4.38Q779.04-6.12 779.04-9.72L779.04-9.72L779.04-65.28Q779.04-68.88 778.32-70.56Q777.60-72.24 775.62-72.90Q773.64-73.56 769.32-73.56L769.32-73.56Q768.96-73.56 768.96-74.28Q768.96-75 769.32-75L769.32-75L818.28-75Q819.48-75 819.48-73.92L819.48-73.92L819.72-58.80Q819.72-58.44 819.06-58.38Q818.40-58.32 818.28-58.68L818.28-58.68Q817.44-65.28 813.60-68.76Q809.76-72.24 803.52-72.24L803.52-72.24L797.40-72.24Q792.24-72.24 790.38-70.74Q788.52-69.24 788.52-65.16L788.52-65.16L788.52-10.20Q788.52-6.36 789.54-4.62Q790.56-2.88 793.44-2.16Q796.32-1.44 802.56-1.44L802.56-1.44Q802.80-1.44 802.80-0.72Q802.80 0 802.56 0L802.56 0Q797.64 0 794.88-0.12L794.88-0.12L783.60-0.24L775.20-0.12Q772.92 0 768.96 0L768.96 0ZM812.28-26.16Q812.28-31.32 809.16-33.78Q806.04-36.24 799.20-36.24L799.20-36.24L783.96-36.24L783.96-39L799.56-39Q806.04-39 809.10-41.16Q812.16-43.32 812.16-47.64L812.16-47.64Q812.16-47.88 812.88-47.88Q813.60-47.88 813.60-47.64L813.60-47.64L813.48-37.56Q813.48-33.96 813.60-32.16L813.60-32.16L813.72-26.16Q813.72-25.92 813-25.92Q812.28-25.92 812.28-26.16L812.28-26.16ZM930.96 0Q930.60 0 930.60-0.72Q930.60-1.44 930.96-1.44L930.96-1.44Q935.28-1.44 937.26-2.04Q939.24-2.64 939.96-4.38Q940.68-6.12 940.68-9.72L940.68-9.72L940.68-65.28Q940.68-68.88 939.96-70.56Q939.24-72.24 937.26-72.90Q935.28-73.56 930.96-73.56L930.96-73.56Q930.60-73.56 930.60-74.28Q930.60-75 930.96-75L930.96-75L979.92-75Q981.12-75 981.12-73.92L981.12-73.92L981.36-58.80Q981.36-58.44 980.70-58.38Q980.04-58.32 979.92-58.68L979.92-58.68Q979.08-65.28 975.24-68.76Q971.40-72.24 965.16-72.24L965.16-72.24L959.04-72.24Q953.76-72.24 951.96-70.68Q950.16-69.12 950.16-64.80L950.16-64.80L950.16-10.20Q950.16-5.88 951.78-4.32Q953.40-2.76 958.32-2.76L958.32-2.76L966.24-2.76Q972.96-2.76 977.46-6.78Q981.96-10.80 983.64-18.24L983.64-18.24Q983.64-18.48 984.12-18.48L984.12-18.48Q984.48-18.48 984.78-18.30Q985.08-18.12 985.08-18L985.08-18Q983.88-9.36 983.88-1.80L983.88-1.80Q983.88-0.84 983.52-0.42Q983.16 0 982.08 0L982.08 0L930.96 0ZM975.36-27.60Q975.36-32.76 972.42-35.22Q969.48-37.68 963.12-37.68L963.12-37.68L945.60-37.68L945.60-40.44L963.36-40.44Q969.48-40.44 972.36-42.54Q975.24-44.64 975.24-49.08L975.24-49.08Q975.24-49.32 975.90-49.32Q976.56-49.32 976.56-49.08L976.56-49.08L976.44-39L976.56-33.60Q976.80-29.76 976.80-27.60L976.80-27.60Q976.80-27.36 976.08-27.36Q975.36-27.36 975.36-27.60L975.36-27.60ZM1076.76-76.32Q1083.72-76.32 1089.06-75.30Q1094.40-74.28 1099.08-72L1099.08-72Q1099.92-71.64 1100.16-71.22Q1100.40-70.80 1100.52-69.36L1100.52-69.36L1102.08-54.36Q1102.08-54 1101.42-53.88Q1100.76-53.76 1100.64-54.24L1100.64-54.24Q1094.52-74.28 1075.92-74.28L1075.92-74.28Q1066.44-74.28 1059.12-69.84Q1051.80-65.40 1047.78-57.24Q1043.76-49.08 1043.76-38.16L1043.76-38.16Q1043.76-27.48 1048.14-18.90Q1052.52-10.32 1060.02-5.46Q1067.52-0.60 1076.52-0.60L1076.52-0.60Q1085.88-0.60 1091.88-5.34Q1097.88-10.08 1101.60-20.04L1101.60-20.04Q1101.72-20.28 1102.20-20.28L1102.20-20.28Q1102.44-20.28 1102.74-20.10Q1103.04-19.92 1103.04-19.80L1103.04-19.80L1101.72-6.12Q1101.60-4.68 1101.36-4.32Q1101.12-3.96 1100.16-3.48L1100.16-3.48Q1094.16-0.72 1088.64 0.42Q1083.12 1.56 1076.52 1.56L1076.52 1.56Q1063.80 1.56 1053.84-3.42Q1043.88-8.40 1038.30-17.28Q1032.72-26.16 1032.72-37.68L1032.72-37.68Q1032.72-48.96 1038.42-57.78Q1044.12-66.60 1054.20-71.46Q1064.28-76.32 1076.76-76.32L1076.76-76.32ZM1212.36-65.04Q1212.36-68.64 1211.64-70.38Q1210.92-72.12 1208.76-72.84Q1206.60-73.56 1202.04-73.56L1202.04-73.56Q1201.68-73.56 1201.68-74.28Q1201.68-75 1202.04-75L1202.04-75L1207.68-74.88Q1213.20-74.64 1217.16-74.64L1217.16-74.64Q1220.52-74.64 1225.80-74.88L1225.80-74.88L1231.92-75Q1232.28-75 1232.28-74.28Q1232.28-73.56 1231.92-73.56L1231.92-73.56Q1227.48-73.56 1225.38-72.90Q1223.28-72.24 1222.56-70.56Q1221.84-68.88 1221.84-65.28L1221.84-65.28L1221.84-9.72Q1221.84-6.12 1222.56-4.38Q1223.28-2.64 1225.38-2.04Q1227.48-1.44 1231.92-1.44L1231.92-1.44Q1232.28-1.44 1232.28-0.72Q1232.28 0 1231.92 0L1231.92 0Q1228.08 0 1225.80-0.12L1225.80-0.12L1217.16-0.24L1207.68-0.12Q1205.64 0 1202.04 0L1202.04 0Q1201.68 0 1201.68-0.72Q1201.68-1.44 1202.04-1.44L1202.04-1.44Q1206.72-1.44 1208.82-2.04Q1210.92-2.64 1211.64-4.32Q1212.36-6 1212.36-9.72L1212.36-9.72L1212.36-65.04ZM1163.52-37.68L1163.52-40.44L1216.56-40.44L1216.56-37.68L1163.52-37.68ZM1159.08-65.28Q1159.08-68.88 1158.36-70.56Q1157.64-72.24 1155.60-72.90Q1153.56-73.56 1149.12-73.56L1149.12-73.56Q1148.76-73.56 1148.76-74.28Q1148.76-75 1149.12-75L1149.12-75L1155.24-74.88Q1160.28-74.64 1163.64-74.64L1163.64-74.64Q1167.36-74.64 1172.88-74.88L1172.88-74.88L1179-75Q1179.24-75 1179.24-74.28Q1179.24-73.56 1179-73.56L1179-73.56Q1174.44-73.56 1172.28-72.84Q1170.12-72.12 1169.34-70.38Q1168.56-68.64 1168.56-65.04L1168.56-65.04L1168.56-9.72Q1168.56-6.12 1169.34-4.38Q1170.12-2.64 1172.22-2.04Q1174.32-1.44 1179-1.44L1179-1.44Q1179.24-1.44 1179.24-0.72Q1179.24 0 1179 0L1179 0Q1175.04 0 1172.88-0.12L1172.88-0.12L1163.64-0.24L1155.12-0.12Q1152.84 0 1148.88 0L1148.88 0Q1148.64 0 1148.64-0.72Q1148.64-1.44 1148.88-1.44L1148.88-1.44Q1153.32-1.44 1155.42-2.04Q1157.52-2.64 1158.30-4.38Q1159.08-6.12 1159.08-9.72L1159.08-9.72L1159.08-65.28ZM1316.16 1.44Q1305 1.44 1296.30-3.78Q1287.60-9 1282.86-17.94Q1278.12-26.88 1278.12-37.44L1278.12-37.44Q1278.12-49.80 1284.36-58.62Q1290.60-67.44 1300.38-71.88Q1310.16-76.32 1320.36-76.32L1320.36-76.32Q1331.76-76.32 1340.40-70.98Q1349.04-65.64 1353.66-56.88Q1358.28-48.12 1358.28-38.28L1358.28-38.28Q1358.28-27.36 1352.52-18.24Q1346.76-9.12 1337.10-3.84Q1327.44 1.44 1316.16 1.44L1316.16 1.44ZM1320.36-1.20Q1328.04-1.20 1334.16-5.16Q1340.28-9.12 1343.82-16.74Q1347.36-24.36 1347.36-34.92L1347.36-34.92Q1347.36-46.08 1343.46-54.84Q1339.56-63.60 1332.30-68.52Q1325.04-73.44 1315.44-73.44L1315.44-73.44Q1302.96-73.44 1296-64.98Q1289.04-56.52 1289.04-41.64L1289.04-41.64Q1289.04-30.24 1293-21Q1296.96-11.76 1304.10-6.48Q1311.24-1.20 1320.36-1.20L1320.36-1.20ZM1405.32 0Q1404.96 0 1404.96-0.72Q1404.96-1.44 1405.32-1.44L1405.32-1.44Q1409.64-1.44 1411.62-2.04Q1413.60-2.64 1414.32-4.38Q1415.04-6.12 1415.04-9.72L1415.04-9.72L1415.04-65.28Q1415.04-68.88 1414.32-70.56Q1413.60-72.24 1411.62-72.90Q1409.64-73.56 1405.32-73.56L1405.32-73.56Q1404.96-73.56 1404.96-74.28Q1404.96-75 1405.32-75L1405.32-75L1454.28-75Q1455.48-75 1455.48-73.92L1455.48-73.92L1455.72-58.80Q1455.72-58.44 1455.06-58.38Q1454.40-58.32 1454.28-58.68L1454.28-58.68Q1453.44-65.28 1449.60-68.76Q1445.76-72.24 1439.52-72.24L1439.52-72.24L1433.40-72.24Q1428.12-72.24 1426.32-70.68Q1424.52-69.12 1424.52-64.80L1424.52-64.80L1424.52-10.20Q1424.52-5.88 1426.14-4.32Q1427.76-2.76 1432.68-2.76L1432.68-2.76L1440.60-2.76Q1447.32-2.76 1451.82-6.78Q1456.32-10.80 1458-18.24L1458-18.24Q1458-18.48 1458.48-18.48L1458.48-18.48Q1458.84-18.48 1459.14-18.30Q1459.44-18.12 1459.44-18L1459.44-18Q1458.24-9.36 1458.24-1.80L1458.24-1.80Q1458.24-0.84 1457.88-0.42Q1457.52 0 1456.44 0L1456.44 0L1405.32 0ZM1449.72-27.60Q1449.72-32.76 1446.78-35.22Q1443.84-37.68 1437.48-37.68L1437.48-37.68L1419.96-37.68L1419.96-40.44L1437.72-40.44Q1443.84-40.44 1446.72-42.54Q1449.60-44.64 1449.60-49.08L1449.60-49.08Q1449.60-49.32 1450.26-49.32Q1450.92-49.32 1450.92-49.08L1450.92-49.08L1450.80-39L1450.92-33.60Q1451.16-29.76 1451.16-27.60L1451.16-27.60Q1451.16-27.36 1450.44-27.36Q1449.72-27.36 1449.72-27.60L1449.72-27.60ZM1519.68-61.56Q1519.68-57 1521.96-53.58Q1524.24-50.16 1527.48-47.70Q1530.72-45.24 1536.48-41.76L1536.48-41.76Q1542.48-38.04 1546.02-35.34Q1549.56-32.64 1552.08-28.68Q1554.60-24.72 1554.60-19.32L1554.60-19.32Q1554.60-13.44 1551.54-8.70Q1548.48-3.96 1542.78-1.26Q1537.08 1.44 1529.52 1.44L1529.52 1.44Q1524.72 1.44 1520.04 0.30Q1515.36-0.84 1511.88-3L1511.88-3Q1511.28-3.36 1511.04-3.84Q1510.80-4.32 1510.80-5.28L1510.80-5.28L1509.60-22.44Q1509.48-22.92 1510.14-23.04Q1510.80-23.16 1510.92-22.68L1510.92-22.68Q1513.80-13.56 1518.96-7.20Q1524.12-0.84 1532.40-0.84L1532.40-0.84Q1538.04-0.84 1541.88-3.90Q1545.72-6.96 1545.72-13.92L1545.72-13.92Q1545.72-19.20 1543.32-23.16Q1540.92-27.12 1537.44-29.82Q1533.96-32.52 1528.20-36L1528.20-36Q1522.56-39.60 1519.26-42.18Q1515.96-44.76 1513.68-48.54Q1511.40-52.32 1511.40-57.36L1511.40-57.36Q1511.40-63.48 1514.70-67.80Q1518-72.12 1523.34-74.22Q1528.68-76.32 1534.56-76.32L1534.56-76.32Q1542.48-76.32 1549.08-73.56L1549.08-73.56Q1550.88-72.72 1550.88-71.40L1550.88-71.40L1551.48-56.40Q1551.48-55.92 1550.82-55.86Q1550.16-55.80 1550.04-56.28L1550.04-56.28Q1548.72-62.76 1544.46-68.52Q1540.20-74.28 1532.28-74.28L1532.28-74.28Q1526.28-74.28 1522.98-70.68Q1519.68-67.08 1519.68-61.56L1519.68-61.56Z" fill="#E6E0D5" transform="translate(52.28 132.32)"/><rect x="730.63" y="159.88" width="201.61" height="2" fill="#D4A361"/>
</svg>
